<?xml version="1.0" encoding="UTF-8"?>
<svg width="64px" height="33px" viewBox="0 0 64 33" version="1.1" xmlns="http://www.w3.org/2000/svg" xmlns:xlink="http://www.w3.org/1999/xlink">
    <!-- Generator: Sketch 61.2 (89653) - https://sketch.com -->
    <title>xu</title>
    <desc>Created with Sketch.</desc>
    <defs>
        <path d="M43.5788889,95.4457143 L43.68,95.44 C43.8933333,95.4133333 44.16,95.1866667 44.48,94.76 C45.7066667,93.2666667 46.88,91.7733333 48,90.28 C49.12,88.7866667 50.3733333,87.4266667 51.76,86.2 C52.88,88.28 54.1866667,89.7333333 55.68,90.56 C57.1733333,91.3866667 59.1733333,91.5066667 61.68,90.92 C62.6933333,90.6533333 63.7333333,90.16 64.8,89.44 C65.8666667,88.72 66.9066667,87.8533333 67.92,86.84 C68.9333333,85.8266667 69.8933333,84.6933333 70.8,83.44 C71.7066667,82.1866667 72.5333333,80.8933333 73.28,79.56 C73.3866667,79.2933333 73.4666667,78.9466667 73.52,78.52 C73.5733333,78.0933333 73.56,77.7066667 73.48,77.36 C73.4,77.0133333 73.2533333,76.8 73.04,76.72 C72.8266667,76.64 72.5066667,76.8133333 72.08,77.24 C71.3866667,78.2 70.6,79.3333333 69.72,80.64 C68.84,81.9466667 67.9066667,83.1733333 66.92,84.32 C65.9333333,85.4666667 64.9333333,86.4133333 63.92,87.16 C62.9066667,87.9066667 61.92,88.1733333 60.96,87.96 C60.3733333,87.8533333 59.8133333,87.52 59.28,86.96 C58.7466667,86.4 58.2533333,85.76 57.8,85.04 C57.3466667,84.32 56.9466667,83.5733333 56.6,82.8 C56.2533333,82.0266667 55.9733333,81.3466667 55.76,80.76 C56.2933333,80.0666667 56.9066667,79.3466667 57.6,78.6 C58.2933333,77.8533333 58.9733333,77.1333333 59.64,76.44 C60.3066667,75.7466667 60.9466667,75.12 61.56,74.56 C62.1733333,74 62.6933333,73.5333333 63.12,73.16 C63.28,73.0533333 63.32,72.8533333 63.24,72.56 C63.16,72.2666667 63.0133333,71.9866667 62.8,71.72 C62.5866667,71.4533333 62.2933333,71.2666667 61.92,71.16 C61.5466667,71.0533333 61.1466667,71.1066667 60.72,71.32 C60.0266667,71.7466667 59.4133333,72.16 58.88,72.56 C58.3466667,72.96 57.84,73.4133333 57.36,73.92 C56.88,74.4266667 56.3866667,74.9866667 55.88,75.6 C55.3733333,76.2133333 54.8,76.8933333 54.16,77.64 C54,77.2133333 53.7733333,76.5466667 53.48,75.64 C53.1866667,74.7333333 52.8533333,73.7066667 52.48,72.56 C52.1066667,71.4133333 51.7333333,70.16 51.36,68.8 C50.9866667,67.44 50.64,66.12 50.32,64.84 C50.2666667,64.5733333 50.1066667,64.5466667 49.84,64.76 C49.5733333,64.9733333 49.2666667,65.2933333 48.92,65.72 C48.5733333,66.1466667 48.2266667,66.64 47.88,67.2 C47.5333333,67.76 47.2533333,68.2533333 47.04,68.68 C46.3466667,70.2266667 46.08,71.7466667 46.24,73.24 C46.5066667,74.7333333 46.9333333,76.1733333 47.52,77.56 C48.1066667,78.9466667 48.8533333,80.7333333 49.76,82.92 C48.3733333,84.7333333 47.1466667,86.4266667 46.08,88 C45.0133333,89.5733333 44.1066667,91.4266667 43.36,93.56 C43.2533333,93.88 43.1866667,94.2 43.16,94.52 C43.1333333,94.84 43.16,95.08 43.24,95.24 C43.32,95.4 43.4666667,95.4666667 43.68,95.44 L43.5788889,95.4457143 Z M89.32,92.76 C90.0933333,92.76 90.8666667,92.64 91.64,92.4 C92.4133333,92.16 93.12,91.88 93.76,91.56 C95.1466667,90.8133333 96.3333333,89.9733333 97.32,89.04 C98.3066667,88.1066667 99.36,87.0266667 100.48,85.8 C100.96,85.2133333 101.506667,84.4266667 102.12,83.44 C102.733333,82.4533333 103.253333,81.6933333 103.68,81.16 C104.8,79.6133333 105.626667,77.88 106.16,75.96 L106.16,75.96 L106.16,75.32 L106.08,75.32 C105.333333,76.0133333 104.32,77.0666667 103.04,78.48 C101.76,79.8933333 100.373333,81.3333333 98.88,82.8 C97.3866667,84.2666667 95.8666667,85.5733333 94.32,86.72 C92.7733333,87.8666667 91.36,88.5466667 90.08,88.76 C89.1733333,88.92 88.72,88.5466667 88.72,87.64 C88.6133333,86.84 88.68,85.92 88.92,84.88 C89.16,83.84 89.48,82.7733333 89.88,81.68 C90.28,80.5866667 90.72,79.52 91.2,78.48 C91.68,77.44 92.1066667,76.4933333 92.48,75.64 C93.1733333,74.3066667 93.9066667,73.2133333 94.68,72.36 C95.4533333,71.5066667 96.32,70.4666667 97.28,69.24 C97.6533333,68.7066667 97.72,68.08 97.48,67.36 C97.24,66.64 96.8266667,65.9866667 96.24,65.4 C95.6533333,64.8133333 94.9866667,64.3733333 94.24,64.08 C93.4933333,63.7866667 92.8533333,63.7466667 92.32,63.96 C91.3066667,64.9733333 90.5466667,66 90.04,67.04 C89.5333333,68.08 88.9066667,69.2666667 88.16,70.6 C87.5733333,71.3466667 86.8666667,72.32 86.04,73.52 C85.2133333,74.72 84.32,75.96 83.36,77.24 C82.4,78.52 81.4533333,79.7333333 80.52,80.88 C79.5866667,82.0266667 78.7333333,82.92 77.96,83.56 C77.1866667,84.2 76.5733333,84.4933333 76.12,84.44 C75.6666667,84.3866667 75.44,83.7733333 75.44,82.6 C75.4933333,82.0666667 75.7333333,81.24 76.16,80.12 C76.5866667,79 77.08,77.8133333 77.64,76.56 C78.2,75.3066667 78.7466667,74.0933333 79.28,72.92 C79.8133333,71.7466667 80.2133333,70.84 80.48,70.2 C80.96,69.2933333 81.04,68.36 80.72,67.4 C80.4,66.44 79.9333333,65.6666667 79.32,65.08 C78.7066667,64.4933333 78.0266667,64.2 77.28,64.2 C76.5333333,64.2 75.9733333,64.68 75.6,65.64 C75.28,66.28 74.8933333,67.12 74.44,68.16 C73.9866667,69.2 73.52,70.3066667 73.04,71.48 C72.56,72.6533333 72.0933333,73.8266667 71.64,75 C71.1866667,76.1733333 70.8,77.2133333 70.48,78.12 C70.32,78.44 70.2,78.7866667 70.12,79.16 C70.04,79.5333333 69.9466667,79.9066667 69.84,80.28 C69.6266667,81.3466667 69.6933333,82.3466667 70.04,83.28 C70.3866667,84.2133333 70.9066667,85.16 71.6,86.12 C72.08,86.76 72.52,87.32 72.92,87.8 C73.32,88.28 73.7333333,88.64 74.16,88.88 C74.5866667,89.12 75.0533333,89.2133333 75.56,89.16 C76.0666667,89.1066667 76.6666667,88.92 77.36,88.6 C78.2133333,88.1733333 79.04,87.6666667 79.84,87.08 C80.64,86.4933333 81.44,85.8 82.24,85 C82.3466667,84.9466667 82.52,84.8 82.76,84.56 C83,84.32 83.2533333,84.0666667 83.52,83.8 C83.6533333,83.6666667 83.78,83.54 83.9,83.42 L84.72,82.6 C84.1333333,84.1466667 83.88,85.6533333 83.96,87.12 C84.04,88.5866667 84.5066667,89.8533333 85.36,90.92 C85.84,91.6133333 86.4266667,92.0933333 87.12,92.36 C87.8133333,92.6266667 88.5466667,92.76 89.32,92.76 Z" id="path-1"></path>
    </defs>
    <g id="logo" stroke="none" stroke-width="1" fill="none" fill-rule="evenodd">
        <g transform="translate(-43.000000, -63.000000)" fill-rule="nonzero" id="xu">
            <g>
                <use fill="#FFFFFF" xlink:href="#path-1"></use>
                <use fill="#000000" xlink:href="#path-1"></use>
            </g>
        </g>
    </g>
</svg>