<?xml version="1.0" encoding="UTF-8"?>
<svg width="114px" height="44px" viewBox="0 0 114 44" version="1.1" xmlns="http://www.w3.org/2000/svg" xmlns:xlink="http://www.w3.org/1999/xlink">
    <!-- Generator: Sketch 61.2 (89653) - https://sketch.com -->
    <title>xu</title>
    <desc>Created with Sketch.</desc>
    <g id="logo" stroke="none" stroke-width="1" fill="none" fill-rule="evenodd">
        <g transform="translate(-19.000000, -60.000000)" fill="#FFFFFF" fill-rule="nonzero" id="xu">
            <path d="M60.16,103.16 C69.52,103.16 80.64,90.2 80.64,81.4 C80.64,79.72 79.84,78.2 77.84,78.2 C75.92,78.2 75.12,79.8 75.12,81.96 C75.12,86.04 70.24,91.32 63.52,91.32 C57.76,91.32 52.96,87.48 50.48,82.44 L54,77.8 C55.84,75.32 57.84,72.92 58.72,72.36 C59.6,73.56 61.84,74.36 63.68,74.36 C66.88,74.36 70.56,70.92 70.56,67.72 C70.56,63.64 67.36,60.44 63.2,60.44 C56.24,60.44 50.32,68.84 45.92,73.48 C44.4,69.88 43.36,66.84 43.28,65.64 C42.64,56.92 23.36,62.12 26.32,69.96 C28.32,75.4 31.28,80.68 34.72,85.48 C33.12,88.6 30.96,91 28.96,92.92 C25.36,95.88 23.04,94.76 23.44,92.84 C23.12,92.76 22.8,92.76 22.4,92.84 C21.76,93.08 20.96,93.56 20.32,95.08 C18.64,99.56 22.56,103 26.48,103 L26.56,103 C32.72,103 37.92,97.96 41.52,93.8 C47.6,100.52 53.52,103.16 60.16,103.16 Z M112,103.24 C121.28,103.24 132.16,89.96 132.16,81.4 C132.16,79.72 131.52,78.2 129.36,78.2 C127.52,78.2 126.64,79.8 126.64,81.96 C126.64,83.56 124.64,90.68 118.16,90.68 C115.92,90.68 114.48,88.6 114.48,84.76 C114.48,75.8 118.8,70.92 118.8,67.72 C118.8,60.68 102.96,58.12 101.04,64.44 C100.08,67.88 99.44,73.72 99.44,80.76 C99.44,83.88 99.52,87 99.84,90.44 C97.84,91.8 95.84,92.68 93.92,92.68 C90.72,92.68 89.76,89.72 89.76,85.96 C89.76,78.2 92.88,72.2 92.88,67.8 C92.88,62.76 78.64,56.12 76.4,64.44 C75.92,66.2 75.2,75.96 75.2,82.04 C75.2,93.32 78.64,103.24 89.12,103.24 C93.36,103.24 97.84,100.6 101.28,97.08 C102.96,101.48 106.16,103.24 112,103.24 Z"></path>
        </g>
    </g>
</svg>